<?xml version="1.0" standalone="no"?>
<!DOCTYPE svg PUBLIC "-//W3C//DTD SVG 20010904//EN"
 "http://www.w3.org/TR/2001/REC-SVG-20010904/DTD/svg10.dtd">
<svg version="1.0" xmlns="http://www.w3.org/2000/svg"
 width="500.000000pt" height="500.000000pt" viewBox="0 0 500.000000 500.000000"
 preserveAspectRatio="xMidYMid meet">

<g transform="translate(0.000000,500.000000) scale(0.100000,-0.100000)"
fill="#000000" stroke="none">
<path d="M2660 3437 c-25 -7 -77 -30 -115 -52 -157 -87 -176 -97 -182 -92 -2
3 9 13 26 22 35 17 39 40 13 71 -49 61 -159 73 -233 25 -65 -41 -82 -87 -81
-216 2 -167 10 -186 160 -383 l131 -174 30 46 c16 26 34 60 41 76 13 31 46 48
61 33 5 -5 35 -47 67 -94 60 -87 87 -104 119 -78 21 18 105 144 135 204 85
167 109 411 52 530 -34 73 -131 108 -224 82z"/>
<path d="M572 2309 c-29 -61 -49 -115 -46 -120 10 -17 23 -9 39 21 15 28 19
30 74 30 56 0 59 -1 71 -30 13 -31 40 -41 40 -15 0 15 -77 191 -93 213 -20 26
-36 8 -85 -99z m87 24 c8 -21 16 -44 18 -50 4 -9 -8 -13 -40 -13 l-46 0 21 50
c11 28 24 50 27 50 4 0 13 -17 20 -37z"/>
<path d="M882 2303 l3 -118 74 0 c51 0 76 4 79 13 3 9 -13 12 -57 12 l-60 0
-3 102 c-3 89 -5 103 -21 106 -16 3 -17 -6 -15 -115z"/>
<path d="M1160 2300 c0 -100 3 -120 15 -120 8 0 15 3 15 8 0 4 2 52 3 107 4
110 2 125 -19 125 -11 0 -14 -24 -14 -120z"/>
<path d="M1371 2392 c-17 -16 -33 -41 -37 -56 -9 -38 4 -92 29 -122 30 -34
104 -45 143 -19 35 23 18 39 -24 24 -80 -28 -138 52 -97 131 18 35 57 48 99
32 33 -13 50 -5 37 17 -6 8 -32 16 -65 19 -51 4 -57 2 -85 -26z"/>
<path d="M1660 2300 c0 -98 3 -120 14 -120 12 0 15 22 18 110 3 123 2 130 -18
130 -11 0 -14 -23 -14 -120z"/>
<path d="M1872 2309 c-29 -61 -49 -115 -46 -120 10 -17 23 -9 39 21 15 28 19
30 74 30 56 0 59 -1 71 -30 13 -31 40 -41 40 -15 0 15 -77 191 -93 213 -20 26
-36 8 -85 -99z m91 14 c9 -25 15 -48 13 -50 -2 -2 -22 -3 -44 -1 l-41 3 21 48
c11 26 24 47 27 47 4 0 14 -21 24 -47z"/>
<path d="M2388 2391 c-30 -27 -33 -34 -33 -90 0 -52 4 -64 26 -86 28 -29 80
-41 133 -31 l36 7 0 59 0 60 -40 0 c-29 0 -40 -4 -40 -15 0 -9 9 -15 25 -15
21 0 25 -5 25 -29 0 -17 -6 -31 -16 -35 -59 -23 -114 18 -114 84 0 71 55 106
124 80 17 -6 27 -6 32 2 12 19 -27 38 -78 38 -39 0 -54 -6 -80 -29z"/>
<path d="M2696 2404 c-3 -9 -6 -55 -6 -104 0 -97 5 -120 26 -120 10 0 14 14
14 50 0 49 1 50 30 50 25 0 35 -8 61 -50 29 -47 59 -66 59 -36 0 7 -11 30 -25
50 l-24 36 24 24 c32 32 32 60 0 91 -21 21 -33 25 -88 25 -50 0 -66 -4 -71
-16z m138 -36 c19 -30 -4 -53 -58 -56 l-46 -3 0 41 0 41 46 -3 c31 -2 51 -9
58 -20z"/>
<path d="M3014 2405 c-4 -8 -4 -51 -2 -96 3 -74 6 -83 31 -105 47 -40 133 -28
156 23 6 13 11 62 11 109 0 76 -2 85 -17 82 -15 -3 -18 -17 -21 -88 -3 -92
-17 -120 -59 -120 -47 0 -63 32 -63 125 0 70 -3 85 -15 85 -9 0 -18 -7 -21
-15z"/>
<path d="M3354 2407 c-2 -7 -3 -60 -2 -118 l3 -104 74 0 c49 0 76 4 78 12 3 8
-14 13 -54 15 l-58 3 -3 103 c-2 83 -6 102 -18 102 -8 0 -17 -6 -20 -13z"/>
<path d="M3634 2407 c-2 -7 -3 -60 -2 -118 l3 -104 74 0 c49 0 76 4 78 12 3 8
-14 13 -54 15 l-58 3 -3 103 c-2 83 -6 102 -18 102 -8 0 -17 -6 -20 -13z"/>
<path d="M3947 2399 c-37 -28 -53 -88 -39 -137 18 -58 44 -77 107 -77 63 0 89
19 107 77 24 82 -27 158 -107 158 -28 0 -51 -7 -68 -21z m110 -24 c50 -35 34
-147 -22 -161 -58 -15 -102 36 -91 106 9 61 66 88 113 55z"/>
<path d="M4262 2303 c2 -97 6 -118 18 -118 12 0 16 18 20 82 l5 82 64 -85 c35
-46 70 -84 77 -84 11 0 14 25 14 120 0 100 -2 120 -15 120 -12 0 -15 -15 -15
-74 0 -41 -4 -77 -9 -80 -4 -3 -36 30 -70 74 -86 111 -92 108 -89 -37z"/>
</g>
</svg>
